<svg width="25" height="25" viewBox="0 0 25 25" fill="none" xmlns="http://www.w3.org/2000/svg">
<path d="M12.1216 2.54932C6.60758 2.54932 2.12158 7.03532 2.12158 12.5493C2.12158 18.0633 6.60758 22.5493 12.1216 22.5493C17.6356 22.5493 22.1216 18.0633 22.1216 12.5493C22.1216 7.03532 17.6356 2.54932 12.1216 2.54932ZM10.1226 16.9623L7.11703 13.9632C6.72628 13.5733 6.72549 12.9405 7.11527 12.5496C7.50529 12.1585 8.13859 12.1578 8.52951 12.548L10.1206 14.1363L14.7076 9.54932C15.098 9.15885 15.7311 9.15885 16.1216 9.54932C16.512 9.93978 16.512 10.5729 16.1216 10.9633L10.1226 16.9623Z" fill="#2FAB73"/>
</svg>
