<svg width="25" height="25" viewBox="0 0 25 25" fill="none" xmlns="http://www.w3.org/2000/svg">
<path fill-rule="evenodd" clip-rule="evenodd" d="M12.5001 11.3493C13.4549 11.3493 14.3706 10.97 15.0457 10.2949C15.7208 9.61975 16.1001 8.70407 16.1001 7.74929C16.1001 6.79451 15.7208 5.87884 15.0457 5.20371C14.3706 4.52858 13.4549 4.14929 12.5001 4.14929C11.5453 4.14929 10.6296 4.52858 9.95451 5.20371C9.27938 5.87884 8.9001 6.79451 8.9001 7.74929C8.9001 8.70407 9.27938 9.61975 9.95451 10.2949C10.6296 10.97 11.5453 11.3493 12.5001 11.3493ZM7.39875 22.1493C5.57696 22.1493 4.04234 20.6179 4.73951 18.9347C5.16165 17.9156 5.78039 16.9896 6.5604 16.2096C7.34041 15.4296 8.26642 14.8108 9.28556 14.3887C10.3047 13.9666 11.397 13.7493 12.5001 13.7493C13.6032 13.7493 14.6955 13.9666 15.7146 14.3887C16.7338 14.8108 17.6598 15.4296 18.4398 16.2096C19.2198 16.9896 19.8385 17.9156 20.2607 18.9347C20.9579 20.6179 19.4232 22.1493 17.6014 22.1493H7.39875Z" fill="#003CD8"/>
</svg>
