<?xml version="1.0" encoding="UTF-8"?>
<svg version="1.1" xmlns="http://www.w3.org/2000/svg" width="178" height="319">
<path d="M0 0 C0.90632172 -0.01547882 1.81264343 -0.03095764 2.74642944 -0.04690552 C5.73824971 -0.08786293 8.72721028 -0.07725611 11.71923828 -0.0625 C13.80283494 -0.07229753 15.8864239 -0.08387939 17.97000122 -0.09716797 C22.33646425 -0.1165092 26.70193045 -0.10951464 31.06835938 -0.08496094 C36.65694875 -0.0563015 42.24226264 -0.099951 47.83045769 -0.16436768 C52.13385192 -0.20473455 56.43646405 -0.20296343 60.73999405 -0.18896484 C62.79965361 -0.18799292 64.85936906 -0.20088073 66.91884995 -0.22802734 C83.00548394 -0.4087427 83.00548394 -0.4087427 87.69187927 2.89602661 C89.50824453 5.18832021 90.72824779 7.27572246 91.91455078 9.9375 C92.64375474 11.09157556 93.38641833 12.23748008 94.15283203 13.3671875 C94.8485287 14.51303105 95.53975669 15.66159682 96.22705078 16.8125 C99.52563082 22.2534918 102.99169806 27.55635169 106.59423828 32.80078125 C107.42600971 34.01894255 108.25763315 35.23720492 109.08911133 36.45556641 C110.34014027 38.28788736 111.59574939 40.11599541 112.86782837 41.93377686 C114.06741032 43.64884726 115.24813274 45.37562445 116.42626953 47.10546875 C117.12196045 48.10860107 117.81765137 49.1117334 118.53442383 50.14526367 C119.91455078 52.9375 119.91455078 52.9375 119.83105469 55.44628906 C118.74338377 58.40276056 117.36491319 60.92831048 115.73876953 63.62890625 C115.08191162 64.72799316 114.42505371 65.82708008 113.74829102 66.95947266 C113.03301998 68.13973474 112.31760314 69.31990846 111.60205078 70.5 C110.86709402 71.72404869 110.13280682 72.94849963 109.39916992 74.17333984 C107.9271832 76.62825087 106.45119413 79.08067509 104.97119141 81.53076172 C103.21172409 84.44524497 101.45890789 87.36347891 99.71142578 90.28515625 C96.78662834 95.17378853 93.85123609 100.05600227 90.91455078 104.9375 C88.55917913 108.8534436 86.20502449 112.77011506 83.85205078 116.6875 C83.23555664 117.71367432 82.6190625 118.73984863 81.98388672 119.79711914 C77.91434844 126.57985464 73.87124369 133.37768302 69.84191895 140.18435669 C56.00636042 163.55597342 56.00636042 163.55597342 50.85205078 171.9375 C50.4649292 172.5776001 50.07780762 173.2177002 49.67895508 173.87719727 C48.8133929 175.26704972 47.87303942 176.61002599 46.91455078 177.9375 C46.25455078 177.9375 45.59455078 177.9375 44.91455078 177.9375 C44.77539902 166.3240074 44.66885239 154.71071381 44.60367775 143.09655666 C44.57239351 137.70331264 44.52997314 132.31063987 44.46191406 126.91772461 C44.3966188 121.71109991 44.36082287 116.50502391 44.34528732 111.29802132 C44.33421929 109.31367418 44.31260537 107.32935636 44.28017044 105.34524345 C44.2364715 102.56080629 44.23062222 99.77862256 44.23339844 96.99389648 C44.21182678 96.17749695 44.19025513 95.36109741 44.16802979 94.5199585 C44.22744922 88.99514843 45.62752294 86.29456559 49.5371151 82.38877964 C51.94617194 79.85057391 51.92925825 77.41581522 52.08251953 74.078125 C51.73109989 69.59956768 49.72851605 66.90408375 46.91455078 63.5625 C42.32812555 61.07818633 38.01593416 61.18949657 32.91455078 61.9375 C28.74570137 63.98535585 26.6326785 65.66914682 24.91455078 69.9375 C24.20170793 74.96055546 24.3447927 78.85692432 26.72705078 83.375 C28.66852617 85.86506281 28.66852617 85.86506281 30.52998352 87.07148743 C32.81360899 90.14918105 32.30406257 93.67177435 32.25512695 97.35620117 C32.25578407 98.64432961 32.25578407 98.64432961 32.25645447 99.95848083 C32.25436301 102.79937407 32.23101521 105.6396785 32.20751953 108.48046875 C32.20192485 110.44915952 32.19765415 112.41785447 32.19465637 114.3865509 C32.18319758 119.57013464 32.15372144 124.75346651 32.12054443 129.93695068 C32.08986587 135.22551059 32.07615577 140.51411115 32.06103516 145.80273438 C32.02885279 156.18110029 31.97764389 166.55927921 31.91455078 176.9375 C30.92455078 177.2675 29.93455078 177.5975 28.91455078 177.9375 C28.47812256 177.18992432 28.04169434 176.44234863 27.59204102 175.67211914 C14.26807433 152.86211478 0.72898849 130.18965527 -13.00234985 107.62243652 C-17.5265585 100.18537429 -22.02302475 92.73507347 -26.38671875 85.20239258 C-28.79461978 81.06487978 -31.29086489 76.99261447 -33.83544922 72.9375 C-34.48618408 71.89311768 -35.13691895 70.84873535 -35.80737305 69.77270508 C-37.09624193 67.70868986 -38.39523902 65.65095725 -39.70532227 63.6003418 C-40.57991089 62.19522339 -40.57991089 62.19522339 -41.47216797 60.76171875 C-42.00028076 59.92729248 -42.52839355 59.09286621 -43.07250977 58.2331543 C-44.08544922 55.9375 -44.08544922 55.9375 -43.84985352 53.80175781 C-42.67188948 50.92889502 -40.96899674 48.55871708 -39.21044922 46 C-38.31166487 44.67950624 -37.41470417 43.35777035 -36.51904297 42.03515625 C-35.9942334 41.26059082 -35.46942383 40.48602539 -34.92871094 39.68798828 C-32.71833853 36.38970278 -30.54196675 33.0701448 -28.37060547 29.74609375 C-27.95393616 29.10833511 -27.53726685 28.47057648 -27.10797119 27.81349182 C-25.40887544 25.21159131 -23.7106447 22.60913032 -22.01397705 20.00564575 C-20.80343778 18.1487359 -19.59104741 16.29304534 -18.37841797 14.4375 C-17.31917114 12.81328125 -17.31917114 12.81328125 -16.23852539 11.15625 C-15.52801025 10.0940625 -14.81749512 9.031875 -14.08544922 7.9375 C-13.76053088 7.33933472 -13.43561255 6.74116943 -13.1008482 6.12487793 C-9.66270633 0.31072091 -6.48478258 -0.08413115 0 0 Z " fill="#013BD4" transform="translate(52.08544921875,120.0625)"/>
<path d="M0 0 C0.99 0 1.98 0 3 0 C2.9071875 1.7015625 2.9071875 1.7015625 2.8125 3.4375 C2.99371651 18.24547774 14.30888148 28.5488671 24.25 38.25 C24.92313232 38.88687744 25.59626465 39.52375488 26.28979492 40.17993164 C32.94505685 46.57368692 37.82807737 53.36137769 40.8125 62.125 C41.21082031 63.26195312 41.60914063 64.39890625 42.01953125 65.5703125 C45.69302576 78.42022558 44.68401056 92.14926141 39.41796875 104.3828125 C38.96574951 105.44129395 38.51353027 106.49977539 38.04760742 107.59033203 C37.70189697 108.38552246 37.35618652 109.18071289 37 110 C28.3161375 110.06947174 19.63237046 110.1227967 10.94829082 110.15543652 C6.91602967 110.17110102 2.88395847 110.1923533 -1.14819336 110.22631836 C-5.0385392 110.25888429 -8.9287022 110.27684711 -12.81917381 110.28463173 C-14.30437283 110.29018026 -15.7895617 110.30101511 -17.274683 110.31719017 C-19.35302072 110.33892851 -21.43060032 110.34196856 -23.5090332 110.34057617 C-24.69261917 110.34723801 -25.87620514 110.35389984 -27.09565735 110.36076355 C-30 110 -30 110 -31.82121277 108.66596985 C-33.6070179 106.14210683 -34.55456407 103.45530385 -35.625 100.5625 C-36.05039062 99.42941406 -36.47578125 98.29632813 -36.9140625 97.12890625 C-40.48807558 86.83112036 -40.79942628 73.61066118 -36.38671875 63.515625 C-31.62496182 54.87739553 -25.64874942 48.17919802 -18 42 C-16.515 42.495 -16.515 42.495 -15 43 C-15.10699219 43.59167969 -15.21398437 44.18335938 -15.32421875 44.79296875 C-16.12464288 49.96828311 -16.12464288 49.96828311 -14.75 54.9375 C-12.74211791 57.30393246 -11.14056485 58.89095938 -7.95703125 59.1953125 C-7.24933594 59.17210937 -6.54164062 59.14890625 -5.8125 59.125 C-4.554375 59.08375 -3.29625 59.0425 -2 59 C-0.13892228 55.14590249 0.14332418 52.85835815 -0.75 48.6875 C-0.93046875 47.80449219 -1.1109375 46.92148437 -1.296875 46.01171875 C-1.82174876 43.76350948 -2.41982717 41.53215983 -3.0546875 39.3125 C-4.30319557 34.32965719 -4.38209035 29.42907719 -4.375 24.3125 C-4.37628906 23.34876465 -4.37757812 22.3850293 -4.37890625 21.39208984 C-4.26485762 13.66399884 -3.0280449 7.16457052 0 0 Z " fill="#023BD0" transform="translate(88,2)"/>
<path d="M0 0 C3.80336845 1.35592458 6.71558579 3.07735881 9.9375 5.5 C14.26142991 8.71239477 18.60974562 11.87945546 23 15 C29.02819733 19.29508024 35.02334495 23.63338264 41 28 C40.408677 32.39385844 38.69149265 35.78053603 36.5 39.5625 C36.11618164 40.23522949 35.73236328 40.90795898 35.33691406 41.60107422 C30.54830565 49.91135793 25.52296656 58.08356492 20.52587891 66.26953125 C15.91171692 73.83050832 11.3613361 81.42466025 6.875 89.0625 C-3.76764339 107.12884596 -3.76764339 107.12884596 -6 110 C-6.66 110 -7.32 110 -8 110 C-8.13915176 98.3865074 -8.24569839 86.77321381 -8.31087303 75.15905666 C-8.34215727 69.76581264 -8.38457764 64.37313987 -8.45263672 58.98022461 C-8.51793198 53.77359991 -8.55372792 48.56752391 -8.56926346 43.36052132 C-8.58033149 41.37617418 -8.60194541 39.39185636 -8.63438034 37.40774345 C-8.67807928 34.62330629 -8.68392857 31.84112256 -8.68115234 29.05639648 C-8.702724 28.23999695 -8.72429565 27.42359741 -8.746521 26.5824585 C-8.69757617 22.03157586 -8.06920746 19.61420891 -5.02139282 16.1544342 C-4.48253763 15.62738923 -3.94368244 15.10034426 -3.38849831 14.55732822 C-1.1232776 12.01667541 -0.96527879 9.3632043 -0.625 6.0625 C-0.42777344 4.34740234 -0.42777344 4.34740234 -0.2265625 2.59765625 C-0.15179688 1.74042969 -0.07703125 0.88320312 0 0 Z " fill="#88ABE9" transform="translate(105,188)"/>
<path d="M0 0 C2.4294516 3.6441774 2.16179575 5.71241272 2 10 C2.75796875 10.23589844 3.5159375 10.47179688 4.296875 10.71484375 C7.52196155 12.24815802 8.3638408 13.56387311 10.25 16.5625 C14.70957041 23.0468179 20.13700003 28.31402259 25.83300781 33.72094727 C32.6592416 40.30694116 37.74146498 47.10704432 40.8125 56.125 C41.21082031 57.26195312 41.60914063 58.39890625 42.01953125 59.5703125 C45.02877991 70.09668828 44.82057362 81.43155439 42 92 C41.01 92.495 41.01 92.495 40 93 C39.27840576 94.64363134 38.60648579 96.31050386 38 98 C37.34 98 36.68 98 36 98 C36 99.32 36 100.64 36 102 C33.22276075 102.78688445 30.77389923 103.11949924 27.890625 103.09765625 C27.13652344 103.09443359 26.38242188 103.09121094 25.60546875 103.08789062 C24.82816406 103.07951172 24.05085938 103.07113281 23.25 103.0625 C22.45722656 103.05798828 21.66445312 103.05347656 20.84765625 103.04882812 C18.89840492 103.03708565 16.94919262 103.01915146 15 103 C16.6507623 97.86429507 18.66406106 92.95732044 20.78125 88 C25.58785465 76.16835778 25.38771421 63.95518891 21 52 C20.67128906 51.06027344 20.34257813 50.12054688 20.00390625 49.15234375 C17.52134144 42.6323898 14.24344661 37.06555727 10.38623047 31.30615234 C5.20117962 23.46656435 -0.18676247 14.38071018 -0.0625 4.8125 C-0.05347656 3.91144531 -0.04445313 3.01039062 -0.03515625 2.08203125 C-0.02355469 1.39496094 -0.01195313 0.70789062 0 0 Z " fill="#86A9E8" transform="translate(88,8)"/>
<path d="M0 0 C4.875 2.75 4.875 2.75 6 5 C6.09323979 7.77679725 6.12576502 10.52832232 6.11352539 13.30517578 C6.11367142 14.16378204 6.11381744 15.02238831 6.1139679 15.90701294 C6.11326963 18.75313824 6.10548125 21.59919859 6.09765625 24.4453125 C6.09579176 26.41543543 6.09436801 28.38555882 6.09336853 30.35568237 C6.08954576 35.54739659 6.07971751 40.73908294 6.06866455 45.93078613 C6.05844528 51.225989 6.0538698 56.52119637 6.04882812 61.81640625 C6.03809504 72.21094976 6.02102148 82.60547256 6 93 C5.01 93.33 4.02 93.66 3 94 C2.56357178 93.25242432 2.12714355 92.50484863 1.67749023 91.73461914 C-6.13918275 78.35284259 -13.97056028 64.98055348 -21.9375 51.6875 C-22.54859619 50.66720703 -23.15969238 49.64691406 -23.78930664 48.59570312 C-26.5416497 44.01878986 -29.32059265 39.46463317 -32.19140625 34.9609375 C-32.90985718 33.832323 -32.90985718 33.832323 -33.64282227 32.6809082 C-34.51956984 31.31239971 -35.40368622 29.94857163 -36.29663086 28.59057617 C-37.25711238 27.09692771 -38.13850363 25.55284722 -39 24 C-38.67 23.34 -38.34 22.68 -38 22 C-33.9957657 25.49087093 -32.37328935 27.64951939 -32 33 C-31.37351562 33.07734375 -30.74703125 33.1546875 -30.1015625 33.234375 C-28 34 -28 34 -27.0234375 35.890625 C-26.80945312 36.66921875 -26.59546875 37.4478125 -26.375 38.25 C-26.13523437 39.05953125 -25.89546875 39.8690625 -25.6484375 40.703125 C-25.43445312 41.46109375 -25.22046875 42.2190625 -25 43 C-24.11785113 45.88214887 -24.11785113 45.88214887 -23 48 C-21.515 48.495 -21.515 48.495 -20 49 C-18.96514123 51.31808364 -17.9644586 53.65175298 -17 56 C-16.34 56.33 -15.68 56.66 -15 57 C-15 58.32 -15 59.64 -15 61 C-14.40574219 61.04511719 -13.81148437 61.09023438 -13.19921875 61.13671875 C-9.87009647 62.44353229 -9.30431189 64.64096162 -7.8125 67.8125 C-7.30332031 68.87082031 -6.79414062 69.92914063 -6.26953125 71.01953125 C-5.26438512 73.37930509 -4.50280154 75.498108 -4 78 C-3.34 78 -2.68 78 -2 78 C-1.690625 79.093125 -1.38125 80.18625 -1.0625 81.3125 C-0.41662103 83.55407994 0.2623117 85.7869351 1 88 C1.66 88 2.32 88 3 88 C3.33 60.28 3.66 32.56 4 4 C2.68 3.34 1.36 2.68 0 2 C0 1.34 0 0.68 0 0 Z " fill="#001A68" transform="translate(78,204)"/>
<path d="M0 0 C12.13484896 -0.20869301 24.2692699 -0.36852697 36.40554905 -0.46630955 C42.04127525 -0.51324557 47.67577228 -0.57688658 53.31079102 -0.67895508 C58.75090002 -0.77687444 64.18982832 -0.83058462 69.63075066 -0.85389519 C71.70451382 -0.87050244 73.77821357 -0.90293496 75.85147285 -0.95157051 C92.09527972 -1.31740868 92.09527972 -1.31740868 96.76622009 1.91326904 C98.59383818 4.21896024 99.79221736 6.32830712 101 9 C101.93731317 10.43753043 102.8917031 11.86423785 103.87109375 13.2734375 C104.73166881 14.63741661 105.58721308 16.00458379 106.4375 17.375 C107.10555664 18.42107422 107.10555664 18.42107422 107.78710938 19.48828125 C111 24.63088038 111 24.63088038 111 28 C106.56066999 23.94072192 103.49860481 19.45542836 100.3125 14.375 C99.82716797 13.611875 99.34183594 12.84875 98.84179688 12.0625 C97.94402312 10.65082817 97.04891743 9.23745309 96.1574707 7.82177734 C95.12719174 6.20019083 94.06569119 4.59853678 93 3 C90.0203586 2.70859856 87.24895696 2.61158308 84.26757812 2.64355469 C83.3634166 2.64151031 82.45925507 2.63946594 81.5276947 2.63735962 C78.52867639 2.63434306 75.53020327 2.65285498 72.53125 2.671875 C70.45381812 2.67493121 68.37638419 2.67680838 66.2989502 2.67755127 C61.94091983 2.68215985 57.58307369 2.69660698 53.22509766 2.71875 C47.62927865 2.74703278 42.03360494 2.75796088 36.43772125 2.7624321 C32.14673397 2.76658256 27.85577628 2.77639693 23.56480408 2.78830719 C21.50105528 2.79401827 19.43730362 2.79877419 17.37355042 2.80257416 C14.493123 2.80942403 11.61281223 2.82305047 8.73242188 2.83886719 C7.44349281 2.84054398 7.44349281 2.84054398 6.12852478 2.84225464 C1.93030945 2.75911804 1.93030945 2.75911804 -2 4 C-1.34 2.68 -0.68 1.36 0 0 Z " fill="#001769" transform="translate(43,121)"/>
<path d="M0 0 C0.66 0.33 1.32 0.66 2 1 C1.401875 1.515625 0.80375 2.03125 0.1875 2.5625 C-2.42376742 5.47219798 -3.53306734 8.39934711 -5 12 C-5.66 12.66 -6.32 13.32 -7 14 C-7.99 14 -8.98 14 -10 14 C-13.52908483 25.32248051 -13.32472314 36.25834436 -13 48 C-12.34 48 -11.68 48 -11 48 C-10.67 51.3 -10.34 54.6 -10 58 C-17.03137588 48.62483216 -17.10318815 37.31365965 -16 26 C-14.01382109 15.70684642 -7.43300059 7.15094477 0 0 Z " fill="#021E78" transform="translate(65,48)"/>
<path d="M0 0 C0.99 0 1.98 0 3 0 C2.95875 1.134375 2.9175 2.26875 2.875 3.4375 C2.85816159 8.14383562 3.82378223 12.46316004 5 17 C4.01 16.67 3.02 16.34 2 16 C1.26953125 13.93359375 1.26953125 13.93359375 0.8125 11.4375 C0.65394531 10.61121094 0.49539062 9.78492188 0.33203125 8.93359375 C0.22246094 8.29550781 0.11289063 7.65742188 0 7 C-3.21561778 19.25954277 -2.98984732 33.05260505 1.0546875 45.15625 C1.95180661 47.85502154 2.26969775 49.86579774 2.25 52.6875 C2.25515625 53.43386719 2.2603125 54.18023437 2.265625 54.94921875 C2 57 2 57 0 60 C-0.66 59.67 -1.32 59.34 -2 59 C-1.65453125 58.28457031 -1.3090625 57.56914063 -0.953125 56.83203125 C0.13237372 53.60667644 -0.04429365 51.98238571 -0.75 48.6875 C-0.93046875 47.80449219 -1.1109375 46.92148437 -1.296875 46.01171875 C-1.82174876 43.76350948 -2.41982717 41.53215983 -3.0546875 39.3125 C-4.30319557 34.32965719 -4.38209035 29.42907719 -4.375 24.3125 C-4.37628906 23.34876465 -4.37757812 22.3850293 -4.37890625 21.39208984 C-4.26485762 13.66399884 -3.0280449 7.16457052 0 0 Z " fill="#02196A" transform="translate(88,2)"/>
<path d="M0 0 C2.4294516 3.6441774 2.16179575 5.71241272 2 10 C2.73605469 10.21398438 3.47210938 10.42796875 4.23046875 10.6484375 C7.75782229 12.36982583 9.10482305 14.4070302 11.3125 17.625 C12.00988281 18.62789062 12.70726563 19.63078125 13.42578125 20.6640625 C13.94527344 21.43492188 14.46476562 22.20578125 15 23 C14.01 23.33 13.02 23.66 12 24 C10.78130071 26.50447516 10.78130071 26.50447516 10 29 C6.8467021 26.35651673 5.53867499 23.21191806 3.875 19.5 C3.35679688 18.3553125 2.83859375 17.210625 2.3046875 16.03125 C0.57797125 12.01947811 -0.11880123 9.147695 -0.0625 4.8125 C-0.05347656 3.91144531 -0.04445313 3.01039062 -0.03515625 2.08203125 C-0.02355469 1.39496094 -0.01195313 0.70789062 0 0 Z " fill="#88AFF4" transform="translate(88,8)"/>
<path d="M0 0 C0.888013 -0.00029205 1.776026 -0.00058411 2.69094849 -0.00088501 C5.62910702 0.00050946 8.56701266 0.01607621 11.50512695 0.03173828 C13.54108034 0.03546799 15.57703551 0.03831516 17.61299133 0.04031372 C22.97405952 0.04795345 28.33501951 0.06760491 33.69604492 0.08972168 C39.16559383 0.11017275 44.63516021 0.11931386 50.10473633 0.12939453 C60.83850785 0.15085044 71.57219903 0.18499053 82.3059082 0.22705078 C82.3059082 0.55705078 82.3059082 0.88705078 82.3059082 1.22705078 C80.65006462 1.22918831 80.65006462 1.22918831 78.96076965 1.23136902 C68.55781092 1.24803816 58.1552434 1.2908093 47.75249195 1.35914135 C42.40427352 1.39343289 37.05634139 1.41852472 31.70800781 1.42260742 C26.54655366 1.42688568 21.38574562 1.45530948 16.22449303 1.50048256 C14.2553655 1.51347263 12.28616072 1.51775991 10.31699562 1.51320457 C7.55843967 1.50830932 4.80177991 1.53434253 2.04345703 1.56762695 C1.22921768 1.55900131 0.41497833 1.55037567 -0.42393494 1.54148865 C-4.76384551 1.62927927 -6.20474191 1.80133987 -9.6151886 4.76826477 C-10.30122665 5.57966415 -10.98726471 6.39106354 -11.6940918 7.22705078 C-12.3540918 7.22705078 -13.0140918 7.22705078 -13.6940918 7.22705078 C-11.15956885 -0.18155477 -7.13616242 -0.06107729 0 0 Z " fill="#0337BC" transform="translate(51.694091796875,122.77294921875)"/>
<path d="M0 0 C1 2 1 2 0.58203125 3.8046875 C-1.03568467 8.15691816 -2.56567106 10.78724067 -6 14 C-7.25436187 16.63222962 -7.25436187 16.63222962 -8 19 C-8.66 19 -9.32 19 -10 19 C-10.309375 19.804375 -10.61875 20.60875 -10.9375 21.4375 C-12 24 -12 24 -13 25 C-12.62056512 29.09789669 -12.30694043 31.53958935 -10 35 C-10.33 35.99 -10.66 36.98 -11 38 C-12.035969 36.42652824 -13.05331732 34.84078454 -14.0625 33.25 C-14.63097656 32.36828125 -15.19945312 31.4865625 -15.78515625 30.578125 C-17.1883393 27.60030889 -17.03434507 27.00317975 -16 24 C-14.48612272 21.55099703 -12.94271916 19.18101522 -11.3125 16.8125 C-10.86277832 16.14919678 -10.41305664 15.48589355 -9.94970703 14.80249023 C-9.05179577 13.47819202 -8.15177018 12.15532463 -7.24951172 10.83398438 C-5.60637753 8.42225636 -3.98928536 5.99360601 -2.375 3.5625 C-1.58333333 2.375 -0.79166667 1.1875 0 0 Z " fill="#031E77" transform="translate(25,148)"/>
<path d="M0 0 C2.375 1 2.375 1 5 3 C6.04768041 5.66921593 6.48684546 8.15432483 7 11 C7.62648438 11.07734375 8.25296875 11.1546875 8.8984375 11.234375 C11 12 11 12 11.9765625 13.890625 C12.19054688 14.66921875 12.40453125 15.4478125 12.625 16.25 C12.86476563 17.05953125 13.10453125 17.8690625 13.3515625 18.703125 C13.56554688 19.46109375 13.77953125 20.2190625 14 21 C14.88214887 23.88214887 14.88214887 23.88214887 16 26 C16.99 26.33 17.98 26.66 19 27 C20.03485877 29.31808364 21.0355414 31.65175298 22 34 C22.66 34.33 23.32 34.66 24 35 C24 36.32 24 37.64 24 39 C24.66 39 25.32 39 26 39 C25.67 40.32 25.34 41.64 25 43 C24.59797363 42.32646484 24.19594727 41.65292969 23.78173828 40.95898438 C21.89783175 37.80498622 20.01177828 34.65228109 18.125 31.5 C17.78596649 30.93320526 17.44693298 30.36641052 17.09762573 29.78244019 C12.43307192 21.98854942 7.7184701 14.23171914 2.79541016 6.59765625 C0 2.21156754 0 2.21156754 0 0 Z " fill="#031E7C" transform="translate(39,226)"/>
<path d="M0 0 C0.33 0 0.66 0 1 0 C1.08636719 0.67546875 1.17273438 1.3509375 1.26171875 2.046875 C2.15104031 7.70194865 2.15104031 7.70194865 5 12.5625 C9.24031446 14.59431734 13.34385209 14.81917872 18 15 C15.64637063 18.01264559 14.45663946 18.92389342 10.625 19.5625 C5.36228224 18.74587138 2.866272 16.46008582 -0.375 12.1875 C-1.49170639 8.27902763 -1.8444011 3.6888022 0 0 Z " fill="#4271D6" transform="translate(69,48)"/>
<path d="M0 0 C0.33 0 0.66 0 1 0 C1.12117188 0.78503906 1.24234375 1.57007813 1.3671875 2.37890625 C2.43722626 9.29689005 2.43722626 9.29689005 4.1875 16.0625 C5 19 5 19 4 22 C1.9375 22.6875 1.9375 22.6875 0 23 C-3.32821753 18.0076737 -2.51014495 12.06526751 -1.546875 6.27734375 C-1.08008677 4.17346253 -0.54676158 2.08452853 0 0 Z " fill="#0B41CC" transform="translate(87,9)"/>
<path d="M0 0 C2.0734093 2.3973795 3.75622884 4.38597962 5 7.3125 C4.1875 9.625 4.1875 9.625 3 11.3125 C2.608125 10.405 2.21625 9.4975 1.8125 8.5625 C-0.22377177 4.91125407 -1.31883158 3.30646623 -5 1.3125 C-10.10548142 0.77388309 -15.0523801 0.88060059 -20 2.3125 C-18 -0.6875 -18 -0.6875 -16.21484375 -1.35546875 C-10.60568169 -2.19634842 -5.04348404 -2.83695977 0 0 Z " fill="#102D84" transform="translate(101,180.6875)"/>
<path d="M0 0 C3.93067089 3.51739942 6.4988417 7.61985919 9.25 12.0625 C9.70890625 12.78244141 10.1678125 13.50238281 10.640625 14.24414062 C11.07375 14.93830078 11.506875 15.63246094 11.953125 16.34765625 C12.34661133 16.97679932 12.74009766 17.60594238 13.14550781 18.25415039 C14 20 14 20 14 23 C10.05814907 19.31020348 7.08449219 15.48303017 4.1875 10.9375 C3.78080078 10.32583984 3.37410156 9.71417969 2.95507812 9.08398438 C0.77102259 5.68860392 0 4.14429469 0 0 Z " fill="#022589" transform="translate(140,126)"/>
<path d="M0 0 C2.4294516 3.6441774 2.16179575 5.71241272 2 10 C2.99 10.33 3.98 10.66 5 11 C5.66 15.29 6.32 19.58 7 24 C1.30759546 16.41012728 -0.7231915 9.44166683 0 0 Z " fill="#86AAF7" transform="translate(88,8)"/>
<path d="M0 0 C0.66 0 1.32 0 2 0 C1.34 1.32 0.68 2.64 0 4 C-21.78 3.505 -21.78 3.505 -44 3 C-44 2.67 -44 2.34 -44 2 C-42.70263916 1.97494385 -41.40527832 1.9498877 -40.06860352 1.92407227 C-35.27341144 1.83018248 -30.4783705 1.72991751 -25.68334961 1.62768555 C-23.60460943 1.58426666 -21.52583197 1.54259688 -19.44702148 1.50268555 C-16.46586855 1.44515079 -13.48490451 1.38140881 -10.50390625 1.31640625 C-9.10078941 1.29133751 -9.10078941 1.29133751 -7.66932678 1.26576233 C-6.80850998 1.24581711 -5.94769318 1.22587189 -5.06079102 1.20532227 C-3.91828636 1.18200584 -3.91828636 1.18200584 -2.75270081 1.15821838 C-0.97264994 1.18620671 -0.97264994 1.18620671 0 0 Z " fill="#063DC2" transform="translate(102,107)"/>
<path d="M0 0 C1.25501773 4.36691457 0.34657509 6.29654966 -1.75 10.2421875 C-3.4465119 12.62790736 -5.26037145 13.13485414 -8 14 C-9.34410262 16.01735205 -9.34410262 16.01735205 -10 18 C-10 14.71336183 -9.59963148 14.03946105 -7.8125 11.42578125 C-7.36132812 10.75869141 -6.91015625 10.09160156 -6.4453125 9.40429688 C-5.96835937 8.71400391 -5.49140625 8.02371094 -5 7.3125 C-4.52304687 6.61060547 -4.04609375 5.90871094 -3.5546875 5.18554688 C-2.37596072 3.45281851 -1.18877663 1.72584893 0 0 Z " fill="#032484" transform="translate(37,130)"/>
<path d="M0 0 C0.66 0 1.32 0 2 0 C2.98414433 1.91411557 3.96213349 3.8313967 4.9375 5.75 C5.48277344 6.81734375 6.02804688 7.8846875 6.58984375 8.984375 C7.71216275 11.38445885 8.50501659 13.41856752 9 16 C8.67 15.34 8.34 14.68 8 14 C7.401875 13.773125 6.80375 13.54625 6.1875 13.3125 C2.89956847 11.33974108 1.4417139 8.49915977 0 5 C-0.25 2.0625 -0.25 2.0625 0 0 Z " fill="#042999" transform="translate(65,266)"/>
<path d="M0 0 C0.66 0.33 1.32 0.66 2 1 C1.401875 1.515625 0.80375 2.03125 0.1875 2.5625 C-2.22800205 4.98224019 -2.22800205 4.98224019 -3.5 8.625 C-5 12 -5 12 -7.1875 13.4375 C-8.0846875 13.7159375 -8.0846875 13.7159375 -9 14 C-8.50128936 9.54326841 -6.97995638 7.42312822 -3.9375 4.1875 C-3.20402344 3.39730469 -2.47054687 2.60710938 -1.71484375 1.79296875 C-1.14894531 1.20128906 -0.58304688 0.60960937 0 0 Z " fill="#032388" transform="translate(65,48)"/>
<path d="M0 0 C3.82097005 3.39641782 6.86381886 7.35012295 9 12 C8.8125 15 8.8125 15 8 17 C7.67 17 7.34 17 7 17 C7 15.02 7 13.04 7 11 C6.401875 10.773125 5.80375 10.54625 5.1875 10.3125 C2.36759165 8.62055499 1.40402914 6.94846119 0 4 C0 2.68 0 1.36 0 0 Z " fill="#011D72" transform="translate(163,161)"/>
<path d="M0 0 C0.99 0.33 1.98 0.66 3 1 C3 2.32 3 3.64 3 5 C4.32 5.66 5.64 6.32 7 7 C6.34 7.66 5.68 8.32 5 9 C3.33333333 9 1.66666667 9 0 9 C0 8.34 0 7.68 0 7 C-0.66 7 -1.32 7 -2 7 C-1.34 4.69 -0.68 2.38 0 0 Z " fill="#8EB1F1" transform="translate(100,31)"/>
<path d="M0 0 C0.33 0.66 0.66 1.32 1 2 C0.67 2.66 0.34 3.32 0 4 C-0.09611752 5.62268991 -0.12982352 7.24947306 -0.125 8.875 C-0.12757812 9.73867187 -0.13015625 10.60234375 -0.1328125 11.4921875 C-0.01023921 13.80665971 0.35033555 15.78289116 1 18 C0.01 18 -0.98 18 -2 18 C-3.95635231 14.08729537 -3.3696659 9.2758022 -3 5 C-1.5 1.8125 -1.5 1.8125 0 0 Z " fill="#021C72" transform="translate(77,186)"/>
<path d="M0 0 C0.99 0.33 1.98 0.66 3 1 C2.89300781 1.59167969 2.78601563 2.18335938 2.67578125 2.79296875 C1.84835103 7.99421025 1.84835103 7.99421025 3.375 12.9375 C3.91125 13.618125 4.4475 14.29875 5 15 C5.33 15.66 5.66 16.32 6 17 C2.83884224 15.63016497 2.0072908 15.0109362 0 12 C-0.25760279 9.30547479 -0.08900053 6.71451625 0 4 C-0.99 3.67 -1.98 3.34 -3 3 C-2.01 2.01 -1.02 1.02 0 0 Z " fill="#0F2968" transform="translate(70,44)"/>
<path d="M0 0 C0.99 0 1.98 0 3 0 C2.95875 1.134375 2.9175 2.26875 2.875 3.4375 C2.85816159 8.14383562 3.82378223 12.46316004 5 17 C4.01 16.67 3.02 16.34 2 16 C0.80911014 10.61972975 -0.2919519 5.54708616 0 0 Z " fill="#3E527B" transform="translate(88,2)"/>
<path d="M0 0 C0.66 0 1.32 0 2 0 C2.75 1.5625 2.75 1.5625 3 4 C1.86915563 6.50286409 0.47860484 8.67007722 -1 11 C-1.33 11 -1.66 11 -2 11 C-2.25 3.375 -2.25 3.375 0 0 Z " fill="#6783B6" transform="translate(107,276)"/>
<path d="M0 0 C2.475 0.99 2.475 0.99 5 2 C5 2.99 5 3.98 5 5 C5.66 5.33 6.32 5.66 7 6 C6.67 6.99 6.34 7.98 6 9 C6.66 9 7.32 9 8 9 C7.67 10.32 7.34 11.64 7 13 C5.82786955 11.21190303 4.66244474 9.41940875 3.5 7.625 C2.8503125 6.62726563 2.200625 5.62953125 1.53125 4.6015625 C0 2 0 2 0 0 Z " fill="#031F80" transform="translate(15,186)"/>
<path d="M0 0 C1.13529002 3.34491489 0.86633118 5.26065531 -0.3125 8.5625 C-0.57675781 9.32691406 -0.84101562 10.09132813 -1.11328125 10.87890625 C-2 13 -2 13 -4 16 C-4.66 16 -5.32 16 -6 16 C-4.27933894 10.55123997 -2.15294651 5.28830549 0 0 Z " fill="#769DF6" transform="translate(110,93)"/>
<path d="M0 0 C0.66 0 1.32 0 2 0 C2.99 3.3 3.98 6.6 5 10 C4.34 10.66 3.68 11.32 3 12 C0.89366282 10.29171079 0.06198392 9.47851584 -0.29296875 6.73828125 C-0.25816406 5.93777344 -0.22335938 5.13726562 -0.1875 4.3125 C-0.16042969 3.50425781 -0.13335937 2.69601563 -0.10546875 1.86328125 C-0.07066406 1.24839844 -0.03585938 0.63351563 0 0 Z " fill="#0A43CF" transform="translate(106,54)"/>
<path d="M0 0 C0 3.65100394 -1.0447585 5.10121798 -2.9375 8.1875 C-3.48277344 9.08855469 -4.02804688 9.98960937 -4.58984375 10.91796875 C-5.05519531 11.60503906 -5.52054687 12.29210937 -6 13 C-6.33 13 -6.66 13 -7 13 C-7 11.35 -7 9.7 -7 8 C-6.34 8 -5.68 8 -5 8 C-5 7.01 -5 6.02 -5 5 C-4.34 5 -3.68 5 -3 5 C-3 4.01 -3 3.02 -3 2 C-2.01 1.34 -1.02 0.68 0 0 Z " fill="#556997" transform="translate(117,265)"/>
<path d="M0 0 C1 2 1 2 0.546875 3.83984375 C0.28390625 4.53207031 0.0209375 5.22429687 -0.25 5.9375 C-0.62898438 6.97197266 -0.62898438 6.97197266 -1.015625 8.02734375 C-2.06854763 10.13736727 -3.25352136 11.4350374 -5 13 C-3.25740319 3.40546697 -3.25740319 3.40546697 0 0 Z " fill="#032B99" transform="translate(25,148)"/>
<path d="M0 0 C0.66 0 1.32 0 2 0 C2 0.66 2 1.32 2 2 C2.99 2 3.98 2 5 2 C7.14285714 9.42857143 7.14285714 9.42857143 8 13 C4.48901975 8.98745115 2.23462006 4.79016959 0 0 Z " fill="#041C74" transform="translate(71,280)"/>
<path d="M0 0 C0.33 0.66 0.66 1.32 1 2 C-0.21484375 4.3828125 -0.21484375 4.3828125 -1.9375 7.125 C-2.50339844 8.03507813 -3.06929687 8.94515625 -3.65234375 9.8828125 C-4.09707031 10.58148438 -4.54179687 11.28015625 -5 12 C-6.25541557 8.23375329 -5.37061958 6.62811066 -4 3 C-3.34 3 -2.68 3 -2 3 C-2 2.34 -2 1.68 -2 1 C-1.34 0.67 -0.68 0.34 0 0 Z " fill="#052481" transform="translate(152,206)"/>
<path d="M0 0 C2.94721162 2.74395564 5.19168608 5.38337216 7 9 C6.67 9.66 6.34 10.32 6 11 C3.66475218 8.74259377 1.81294927 6.7194239 0 4 C0 2.68 0 1.36 0 0 Z " fill="#011F75" transform="translate(140,126)"/>
<path d="M0 0 C3.96 0.33 7.92 0.66 12 1 C10 3 10 3 6.5625 3.3125 C3 3 3 3 0 0 Z " fill="#3A74ED" transform="translate(73,64)"/>
<path d="M0 0 C1.1725131 0.95117134 2.33787015 1.91117009 3.5 2.875 C4.47453125 3.67550781 4.47453125 3.67550781 5.46875 4.4921875 C5.9740625 4.98976563 6.479375 5.48734375 7 6 C7 6.66 7 7.32 7 8 C5.02 8 3.04 8 1 8 C1.33 6.68 1.66 5.36 2 4 C1.34 4 0.68 4 0 4 C0 2.68 0 1.36 0 0 Z " fill="#5B759F" transform="translate(113,42)"/>
<path d="M0 0 C2.9297008 2.82506863 5.50174717 5.78796065 8 9 C7.67 9.66 7.34 10.32 7 11 C1.21538462 6.81538462 1.21538462 6.81538462 0.125 2.6875 C0.08375 1.800625 0.0425 0.91375 0 0 Z " fill="#4F638E" transform="translate(93,19)"/>
<path d="M0 0 C0 4.24645065 -1.81750806 6.38524772 -4 10 C-4.99 9.34 -5.98 8.68 -7 8 C-7 7.34 -7 6.68 -7 6 C-5.68 6 -4.36 6 -3 6 C-3 4.35 -3 2.7 -3 1 C-2.01 0.67 -1.02 0.34 0 0 Z " fill="#576E9F" transform="translate(123,255)"/>
<path d="M0 0 C0.99 0.33 1.98 0.66 3 1 C1.8141763 4.37503669 0.72426311 6.64722731 -2 9 C-2.33 7.35 -2.66 5.7 -3 4 C-2.01 4 -1.02 4 0 4 C0 2.68 0 1.36 0 0 Z " fill="#5D74A5" transform="translate(130,239)"/>
<path d="M0 0 C0.96349722 2.60144251 1.0123938 3.94670665 0.375 6.6875 C-1 9 -1 9 -3.625 9.8125 C-4.800625 9.9053125 -4.800625 9.9053125 -6 10 C-5.65066406 9.52949219 -5.30132812 9.05898437 -4.94140625 8.57421875 C-4.48636719 7.95160156 -4.03132813 7.32898438 -3.5625 6.6875 C-2.88380859 5.76517578 -2.88380859 5.76517578 -2.19140625 4.82421875 C-0.82663692 2.90322899 -0.82663692 2.90322899 0 0 Z " fill="#465C88" transform="translate(104,198)"/>
<path d="M0 0 C4.875 1.75 4.875 1.75 6 4 C5.38125 4.144375 4.7625 4.28875 4.125 4.4375 C1.96741678 4.93152225 1.96741678 4.93152225 0 6 C-0.38218767 4.34385343 -0.71395102 2.67542976 -1 1 C-0.67 0.67 -0.34 0.34 0 0 Z " fill="#84A6DF" transform="translate(97,28)"/>
<path d="M0 0 C1.98 1.65 3.96 3.3 6 5 C5.01 5.495 5.01 5.495 4 6 C1.375 5.0625 1.375 5.0625 -1 4 C-0.67 2.68 -0.34 1.36 0 0 Z " fill="#5B7BA9" transform="translate(103,32)"/>
<path d="" fill="#000000" transform="translate(0,0)"/>
<path d="" fill="#000000" transform="translate(0,0)"/>
<path d="" fill="#000000" transform="translate(0,0)"/>
<path d="" fill="#000000" transform="translate(0,0)"/>
<path d="" fill="#000000" transform="translate(0,0)"/>
<path d="" fill="#000000" transform="translate(0,0)"/>
<path d="" fill="#000000" transform="translate(0,0)"/>
<path d="" fill="#000000" transform="translate(0,0)"/>
<path d="" fill="#000000" transform="translate(0,0)"/>
<path d="" fill="#000000" transform="translate(0,0)"/>
<path d="" fill="#000000" transform="translate(0,0)"/>
<path d="" fill="#000000" transform="translate(0,0)"/>
</svg>
